<?xml version="1.0" encoding="UTF-8" standalone="no"?>
<svg
   version="1.0"
   width="2269.6284pt"
   height="424.95316pt"
   viewBox="0 0 2269.6284 424.95316"
   preserveAspectRatio="xMidYMid"
   id="svg11"
   xmlns="http://www.w3.org/2000/svg"
   xmlns:svg="http://www.w3.org/2000/svg">
  <defs
     id="defs11" />
  <g
     transform="matrix(0.1,0,0,-0.1,-3,1001)"
     fill="#000000"
     stroke="none"
     id="g11">
    <path
       d="m 10720,9989 c -52,-22 -82,-61 -110,-142 -20,-56 -20,-82 -18,-1985 l 3,-1929 30,-48 c 43,-70 98,-96 191,-93 92,4 140,34 178,109 25,51 26,60 26,228 l 1,176 26,-35 c 49,-65 218,-226 281,-269 82,-55 239,-133 322,-159 153,-49 267,-65 445,-66 256,0 458,42 661,139 369,177 647,541 740,970 80,364 38,792 -103,1070 -14,28 -35,68 -46,90 -61,119 -203,292 -325,394 -284,237 -652,348 -1044,313 -238,-22 -420,-84 -618,-214 -77,-50 -212,-173 -282,-255 l -27,-32 -3,792 c -3,671 -5,797 -18,822 -55,113 -100,145 -202,145 -41,-1 -79,-8 -108,-21 z m 1506,-1640 c 136,-24 342,-107 433,-176 62,-46 162,-146 194,-193 17,-25 37,-51 44,-59 34,-34 124,-242 148,-341 50,-201 45,-485 -11,-683 -92,-329 -359,-594 -690,-685 -238,-66 -519,-44 -740,58 -156,72 -267,161 -367,295 -137,184 -205,392 -214,656 -6,169 10,291 58,432 73,213 168,360 309,480 115,96 332,192 500,220 53,9 279,7 336,-4 z"
       id="path1" />
    <path
       d="m 9230,9947 c -100,-35 -172,-94 -211,-175 -19,-38 -23,-64 -23,-137 0,-78 4,-98 28,-146 36,-75 78,-116 156,-153 57,-27 75,-31 145,-30 242,2 385,207 315,448 -16,53 -100,140 -168,173 -63,31 -183,41 -242,20 z"
       id="path2" />
    <path
       d="M 1355,9764 C 827,9702 488,9526 286,9208 89,8897 84,8460 276,8170 c 93,-141 236,-261 419,-353 195,-98 516,-198 975,-303 55,-12 318,-100 377,-125 83,-35 229,-128 277,-176 114,-113 158,-219 157,-384 0,-165 -41,-268 -155,-388 -107,-111 -275,-194 -485,-238 -113,-24 -147,-26 -326,-26 -216,0 -341,15 -506,58 -215,56 -422,151 -588,270 -57,41 -120,80 -139,86 -119,39 -251,-60 -252,-189 0,-124 94,-227 324,-354 378,-208 747,-289 1251,-275 347,10 551,57 793,184 122,63 191,113 279,201 126,123 193,240 250,432 35,117 43,326 18,455 -37,196 -115,344 -247,471 -194,186 -430,297 -868,410 -576,148 -695,183 -824,244 -119,55 -193,105 -259,174 -95,98 -137,209 -137,365 0,107 12,158 62,259 69,138 171,222 383,313 36,15 170,49 256,64 127,23 414,20 564,-5 219,-36 433,-114 617,-226 73,-45 113,-54 174,-43 60,11 106,42 141,94 39,57 38,142 -1,209 -34,58 -82,93 -236,174 -283,149 -625,224 -1010,220 -96,0 -188,-3 -205,-4 z"
       id="path3" />
    <path
       d="m 22440,9310 c -82,-26 -136,-87 -180,-203 -56,-145 -97,-195 -217,-265 -168,-98 -307,-122 -590,-102 -354,25 -604,-28 -833,-177 -289,-189 -483,-516 -568,-958 -67,-353 -74,-463 -70,-1125 4,-556 4,-554 67,-617 48,-48 85,-65 158,-71 80,-6 158,18 195,61 59,68 60,77 63,796 2,384 8,695 15,751 39,346 112,552 242,690 165,175 410,258 687,231 479,-45 843,49 1081,280 63,61 150,173 150,193 0,6 6,22 13,36 74,144 95,305 49,379 -55,89 -167,132 -262,101 z"
       id="path4" />
    <path
       d="m 20311,8814 c -63,-17 -184,-72 -236,-107 -61,-42 -160,-141 -216,-217 -71,-98 -147,-256 -196,-410 -26,-84 -69,-286 -83,-400 -6,-40 -15,-79 -20,-84 -6,-6 -10,-39 -10,-74 0,-56 -5,-72 -37,-126 -53,-88 -94,-137 -186,-218 -85,-75 -90,-84 -75,-148 38,-168 52,-637 22,-756 -12,-48 -14,-68 -6,-76 13,-13 10,-24 57,152 20,74 47,171 60,215 13,44 40,134 59,199 20,65 36,123 36,128 0,6 -9,21 -20,35 -27,35 -26,78 5,108 29,30 64,32 97,5 39,-30 42,-78 7,-112 -15,-15 -34,-28 -43,-28 -9,0 -18,-12 -22,-27 -9,-40 -32,-120 -51,-178 -9,-27 -21,-72 -28,-100 -7,-27 -18,-63 -24,-80 -34,-97 -92,-308 -87,-321 8,-20 35,-18 43,4 7,20 151,241 169,259 7,7 33,43 58,80 25,38 79,115 121,172 l 75,105 v 230 c 0,357 42,658 136,991 35,123 120,292 201,400 102,134 208,220 374,302 76,37 138,71 138,74 3,22 -240,24 -318,3 z"
       id="path5" />
    <path
       d="m 4865,8749 c -256,-26 -463,-94 -672,-221 -161,-97 -355,-295 -455,-463 -132,-223 -195,-450 -204,-745 -9,-291 36,-527 141,-740 128,-260 293,-444 525,-586 175,-106 280,-146 500,-191 104,-21 155,-26 305,-27 438,-2 774,123 1037,387 114,114 133,147 132,227 0,95 -35,152 -119,191 -54,25 -127,24 -181,-3 -24,-11 -85,-64 -136,-116 -138,-140 -291,-222 -493,-263 -424,-85 -843,75 -1069,409 -121,179 -182,368 -193,599 -8,156 8,277 54,418 51,160 102,260 174,346 22,26 39,50 39,53 0,8 20,27 105,102 111,97 292,180 468,215 252,49 539,-1 753,-131 69,-43 98,-66 209,-171 87,-82 122,-101 194,-102 127,-2 213,96 198,225 -9,73 -33,113 -121,202 -185,186 -428,313 -699,365 -124,24 -362,34 -492,20 z"
       id="path6" />
    <path
       d="m 8213,8749 c -185,-17 -377,-80 -528,-174 -56,-35 -157,-126 -230,-208 -19,-21 -71,-102 -78,-119 -17,-47 -24,-4 -26,150 -1,92 -6,183 -11,203 -25,93 -101,149 -202,149 -111,0 -176,-46 -208,-148 -21,-67 -21,-72 -18,-1357 l 3,-1291 26,-49 c 34,-66 95,-105 178,-112 112,-10 196,40 232,140 18,49 19,88 19,732 v 680 l 25,135 c 32,175 49,247 58,256 4,4 7,14 7,22 0,28 77,169 133,241 58,76 157,162 242,210 102,58 284,104 464,117 102,8 162,28 204,69 44,43 60,91 55,165 -6,80 -42,134 -111,165 -66,30 -118,35 -234,24 z"
       id="path7" />
    <path
       d="m 15405,8754 c -238,-25 -464,-99 -658,-216 -72,-44 -203,-156 -282,-241 -120,-130 -238,-330 -293,-497 -52,-156 -89,-440 -77,-589 3,-42 8,-107 11,-146 6,-77 42,-238 74,-329 11,-32 42,-101 70,-153 168,-320 444,-563 794,-703 260,-103 662,-144 1031,-105 269,29 484,82 738,184 245,98 508,273 690,458 201,205 315,362 505,693 30,52 64,111 75,130 95,166 213,385 228,424 7,15 23,49 37,75 14,25 32,60 40,76 21,40 104,159 114,163 4,2 8,8 8,13 0,6 39,51 88,100 157,163 266,205 638,245 61,7 125,54 159,115 24,45 27,59 22,107 -8,74 -46,128 -117,166 -50,27 -63,30 -150,29 -244,-1 -511,-91 -704,-237 -116,-88 -245,-231 -358,-396 -64,-94 -216,-358 -244,-425 -7,-19 -38,-76 -67,-127 -49,-83 -111,-195 -141,-252 -63,-120 -165,-272 -281,-421 -44,-56 -198,-203 -290,-277 -254,-203 -600,-343 -995,-404 -81,-13 -175,-18 -320,-19 -208,0 -268,7 -430,51 -336,92 -595,320 -710,626 -21,57 -60,202 -60,225 0,11 180,13 1057,13 1060,0 1149,3 1213,35 47,24 110,98 131,155 18,47 20,69 16,150 -12,210 -98,486 -203,652 -15,23 -33,54 -40,68 -41,79 -234,270 -359,356 -123,85 -318,164 -490,199 -127,26 -359,40 -470,29 z m 331,-404 c 374,-75 609,-279 741,-643 8,-23 25,-90 38,-149 l 23,-108 h -995 -996 l 7,52 c 7,51 45,194 68,253 24,64 81,175 89,175 5,0 9,5 9,11 0,12 52,82 102,137 109,121 332,238 528,277 101,20 272,18 386,-5 z"
       id="path8" />
    <path
       d="m 9234,8739 c -53,-15 -107,-77 -127,-144 -17,-56 -18,-139 -15,-1346 l 3,-1285 30,-60 c 26,-51 38,-63 84,-86 136,-69 296,-7 330,128 8,30 11,425 11,1313 0,1232 -1,1272 -20,1333 -26,84 -43,106 -104,134 -54,25 -132,31 -192,13 z"
       id="path9" />
    <path
       d="m 17865,8736 c -58,-25 -101,-77 -125,-150 -21,-64 -23,-85 -22,-315 0,-342 1,-381 10,-381 7,0 177,236 198,275 6,11 25,40 43,65 17,25 42,61 55,80 13,19 44,59 69,89 57,66 77,108 77,158 0,43 -32,119 -58,140 -61,49 -181,68 -247,39 z"
       id="path10" />
    <path
       d="m 18150,6950 c -147,-247 -279,-434 -365,-520 l -45,-45 v -196 c 0,-220 10,-269 64,-328 87,-94 258,-95 339,-1 57,67 58,75 55,645 l -3,519 z"
       id="path11" />
  </g>
</svg>
