<?xml version="1.0" encoding="UTF-8" standalone="no"?>
<svg
   id="svg"
   version="1.1"
   width="206.37398"
   height="159.8615"
   viewBox="0 0 206.37398 159.8615"
   xmlns="http://www.w3.org/2000/svg"
   xmlns:svg="http://www.w3.org/2000/svg">
  <defs
     id="defs1" /><defs>
  <linearGradient id="electricEmberGradient" x1="0%" y1="0%" x2="0%" y2="100%">
    <stop offset="0%" stop-color="#FFAB40" /> <stop offset="100%" stop-color="#FF3D00" /> </linearGradient>
</defs>
  <g
     id="svgg"
     transform="translate(-107.36888,-120.07438)">
    <path
       id="path0"
       d="m 187.901,120.407 c -1.556,0.562 -2.927,2.21 -3.305,3.972 -0.385,1.797 -0.309,150.688 0.078,151.807 1.586,4.584 8.032,5.1 10.012,0.801 l 0.511,-1.108 -0.018,-75.488 c -0.021,-85.827 0.178,-76.914 -1.757,-78.818 -1.455,-1.432 -3.556,-1.876 -5.521,-1.166 m -27.043,10.013 c -1.845,6.84 -4.704,9.801 -11.102,11.499 -1.689,0.449 -1.694,0.441 0.769,1.225 4.994,1.59 7.181,3.361 8.831,7.149 0.141,0.322 0.368,0.85 0.506,1.172 0.138,0.322 0.486,1.377 0.775,2.344 0.288,0.966 0.551,1.845 0.585,1.953 0.033,0.107 0.102,0.063 0.153,-0.098 0.051,-0.161 0.252,-0.82 0.447,-1.465 2.163,-7.162 4.684,-9.731 11.142,-11.353 1.651,-0.415 1.598,-0.508 -0.65,-1.144 -5.915,-1.673 -8.628,-4.433 -10.338,-10.516 -0.619,-2.203 -0.713,-2.268 -1.118,-0.766 m 44.377,22.197 c -1.981,0.533 -3.437,2.074 -3.87,4.097 -0.153,0.716 -0.197,15.78 -0.155,52.954 l 0.06,51.953 0.516,0.977 c 2.187,4.139 8.399,3.58 9.749,-0.878 0.38,-1.253 0.385,-2.015 0.333,-53.126 l -0.052,-51.856 -0.541,-1.102 c -1.241,-2.527 -3.56,-3.686 -6.04,-3.019 m -59.803,1.909 c -0.472,1.577 -0.808,2.353 -1.596,3.69 -0.632,1.074 -2.597,2.288 -5.066,3.13 -0.752,0.257 -1.404,0.49 -1.449,0.518 -0.176,0.109 0.195,0.29 1.508,0.734 4.115,1.392 5.73,3.197 6.879,7.691 0.256,1.001 0.414,0.898 0.864,-0.562 1.314,-4.265 2.546,-5.569 6.677,-7.063 1.874,-0.678 1.873,-0.725 -0.026,-1.339 -3.895,-1.259 -5.201,-2.594 -6.542,-6.686 -0.749,-2.287 -0.602,-2.274 -1.249,-0.113 m 25.692,11.972 c -1.258,0.57 -2.155,1.464 -2.81,2.803 l -0.638,1.304 v 35.743 35.742 l 0.64,1.309 c 1.726,3.528 6.941,4.004 9.163,0.835 1.099,-1.568 1.048,0.386 0.991,-38.193 l -0.052,-35.436 -0.506,-1.074 c -1.301,-2.761 -4.364,-4.13 -6.788,-3.033 m 50.626,12.219 c -1.351,0.417 -2.455,1.415 -3.233,2.922 l -0.744,1.439 v 25.711 c 0,28.211 -0.058,26.786 1.169,28.48 2.244,3.098 7.148,2.738 8.89,-0.652 l 0.586,-1.14 0.052,-26.122 c 0.057,-29.218 0.151,-27.138 -1.297,-28.893 -1.197,-1.451 -3.733,-2.267 -5.423,-1.745 m -67.355,1.775 c -1.19,0.479 -2.281,1.502 -2.876,2.697 l -0.445,0.893 v 23.145 c 0,21.89 0.019,23.194 0.355,24.063 1.333,3.456 6.647,4.08 9.214,1.081 1.131,-1.321 1.096,-0.46 1.035,-25.437 l -0.057,-23.047 -0.584,-1.055 c -1.327,-2.395 -4.087,-3.368 -6.642,-2.34 m 126.855,5.866 c -3.938,1.899 -7.314,3.079 -13.086,4.572 -1.712,0.443 -6.264,1.174 -8.105,1.301 l -0.782,0.054 -0.05,10.797 c -0.04,8.542 0.001,10.811 0.195,10.868 0.135,0.039 1.52,0.217 3.078,0.395 3.108,0.356 7.363,1.308 10.547,2.361 1.128,0.373 2.358,0.777 2.734,0.897 0.946,0.301 4.032,1.611 6.224,2.641 1.517,0.713 1.884,0.819 2.148,0.619 0.176,-0.132 0.891,-0.733 1.589,-1.334 3.319,-2.859 7.347,-5.58 11.621,-7.848 1.594,-0.846 8.566,-3.868 8.924,-3.868 0.108,0 0.474,-0.127 0.812,-0.282 0.339,-0.154 1.802,-0.684 3.253,-1.176 5.637,-1.914 5.777,-1.892 -11.604,-1.821 l -13.654,0.056 -0.433,0.781 c -1.349,2.44 -4.922,2.644 -6.896,0.395 -0.339,-0.386 -0.617,-0.869 -0.617,-1.074 0,-0.205 -0.087,-0.426 -0.195,-0.493 -0.777,-0.48 0.149,-3.236 1.435,-4.27 2.242,-1.806 4.852,-1.319 6.407,1.194 l 0.393,0.635 h 14.023 c 16.607,0 16.348,0.037 11.531,-1.651 -1.128,-0.395 -2.562,-0.932 -3.187,-1.194 -0.624,-0.261 -1.255,-0.475 -1.401,-0.475 -0.146,0 -0.932,-0.308 -1.746,-0.684 -0.814,-0.376 -1.537,-0.684 -1.607,-0.684 -0.315,0 -7.333,-3.463 -8.536,-4.212 -4.515,-2.812 -5.666,-3.631 -7.824,-5.563 -2.596,-2.325 -2.39,-2.288 -5.191,-0.937 m -42.203,3.093 c -1.865,0.324 -3.176,1.361 -4.103,3.245 l -0.471,0.956 -0.058,11.621 c -0.062,12.636 -0.007,13.52 0.945,15.187 2.1,3.676 7.463,3.425 9.431,-0.44 l 0.497,-0.977 0.04,-12.598 c 0.044,-13.548 0.07,-13.144 -0.961,-14.84 -0.489,-0.804 -2.459,-2.151 -3.152,-2.155 -0.271,-10e-4 -0.668,-0.036 -0.883,-0.078 -0.215,-0.042 -0.793,-0.007 -1.285,0.079 m 12.172,13.625 0.051,12.842 h 2.343 2.344 l 0.05,-12.842 0.05,-12.842 h -2.444 -2.444 l 0.05,12.842 M 138.281,191.784 c -1.653,0.334 -3.035,1.559 -3.691,3.273 -0.558,1.458 -0.64,17.959 -0.098,19.8 1.283,4.364 7.836,4.672 10.105,0.475 0.669,-1.236 0.766,-18.371 0.115,-20.112 -1.035,-2.765 -3.425,-4.042 -6.431,-3.436 m -30.101,12.49 c -1.301,1.301 -0.992,3.503 0.605,4.318 1.011,0.515 18.367,0.62 19.059,0.115 0.483,-0.354 0.574,-4.311 0.111,-4.868 -0.243,-0.293 -1.161,-0.323 -9.643,-0.323 h -9.374 l -0.758,0.758"
       stroke="none"
       fill="url(#electricEmberGradient)"
       fill-rule="evenodd" />
  </g>
</svg>
