<svg xmlns="http://www.w3.org/2000/svg" viewBox="0 0 100 100" preserveAspectRatio="xMidYMid slice">
  <defs>
    <linearGradient id="vertGrad" x1="0%" y1="0%" x2="0%" y2="100%">
      <stop offset="0%" style="stop-color:#1e1a17" />
      <stop offset="50%" style="stop-color:#473524" />
      <stop offset="100%" style="stop-color:#41372e" />
    </linearGradient>
    
    <clipPath id="viewport">
      <rect width="100" height="100" />
    </clipPath>
  </defs>

  <!-- Background -->
  <rect width="100" height="100" fill="#1e1a17"/>
  
  <g clip-path="url(#viewport)">
    <!-- Intersecting waves - scaled to 0-100 coordinate system -->
    <path d="M0 20 
             C 10 20, 20 60, 35 60
             C 50 60, 60 20, 75 20
             C 90 20, 100 40, 100 40"
          fill="none" stroke="#5c5241" stroke-width="15" opacity="0.4"/>
          
    <path d="M0 40 
             C 10 40, 20 80, 35 80
             C 50 80, 60 40, 75 40
             C 90 40, 100 60, 100 60"
          fill="none" stroke="#473524" stroke-width="15" opacity="0.3"/>
          
    <path d="M0 60 
             C 10 60, 20 20, 35 20
             C 50 20, 60 60, 75 60
             C 90 60, 100 80, 100 80"
          fill="none" stroke="#41372e" stroke-width="15" opacity="0.35"/>
          
    <!-- Accent circles -->
    <circle cx="50" cy="50" r="30" 
            fill="none" stroke="#5c5241" stroke-width="8" opacity="0.2"/>
    <circle cx="50" cy="50" r="20" 
            fill="none" stroke="#473524" stroke-width="8" opacity="0.15"/>
  </g>
</svg>
